<svg width="26" height="24" viewBox="0 0 26 24" fill="none" xmlns="http://www.w3.org/2000/svg">
<path d="M22.3059 6.307C23.7918 8.88068 24.5348 10.1675 24.6046 11.5747C24.6142 11.7675 24.6142 11.9605 24.6046 12.1533C24.5348 13.5605 23.7918 14.8473 22.3059 17.421C20.82 19.9947 20.077 21.2815 18.8933 22.0456C18.7312 22.1503 18.564 22.2468 18.3923 22.3349C17.1387 22.978 15.6527 22.978 12.6809 22.978C9.70908 22.978 8.22317 22.978 6.96955 22.3349C6.79786 22.2468 6.63065 22.1503 6.46854 22.0456C5.28478 21.2815 4.54183 19.9947 3.05591 17.421C1.57 14.8473 0.827043 13.5605 0.757176 12.1533C0.747608 11.9605 0.747608 11.7675 0.757176 11.5747C0.827043 10.1675 1.57 8.88068 3.05591 6.307C4.54183 3.73332 5.28478 2.44648 6.46854 1.68236C6.63066 1.57772 6.79787 1.48118 6.96955 1.3931C8.22317 0.75 9.70908 0.75 12.6809 0.75C15.6527 0.75 17.1387 0.75 18.3923 1.3931C18.564 1.48118 18.7312 1.57772 18.8933 1.68236C20.077 2.44648 20.82 3.73332 22.3059 6.307Z" stroke="#808080" stroke-width="1.5"/>
<path d="M10.3663 10.8185C10.6032 10.2432 11.0601 9.78629 11.6355 9.54938L14.7585 8.26343C15.7174 7.86857 16.6763 8.8275 16.2815 9.78643L14.9955 12.9094C14.7586 13.4848 14.3017 13.9417 13.7264 14.1786L10.6033 15.4646C9.64442 15.8594 8.68549 14.9005 9.08035 13.9416L10.3663 10.8185Z" stroke="#808080" stroke-width="1.5"/>
</svg>
