<svg width="26" height="23" viewBox="0 0 26 23" fill="none" xmlns="http://www.w3.org/2000/svg">
<path fill-rule="evenodd" clip-rule="evenodd" d="M22.863 1.9665C21.3142 0.387021 19.59 -0.101607 17.9707 0.0169312C16.3953 0.132263 14.9765 0.815662 13.9403 1.473C13.1231 1.99137 11.9599 1.99137 11.1427 1.473C10.1065 0.81567 8.6877 0.132279 7.11228 0.0169491C5.49307 -0.101586 3.76887 0.387038 2.22005 1.9665C0.391557 3.83117 -0.182113 6.13303 0.0482495 8.46143C0.275957 10.763 1.28551 13.1027 2.63197 15.1758C3.98203 17.2545 5.70659 19.1208 7.43671 20.4759C9.12879 21.8012 10.9698 22.75 12.5415 22.75C14.1132 22.75 15.9543 21.8012 17.6464 20.4759C19.3765 19.1208 21.101 17.2545 22.4511 15.1758C23.7975 13.1027 24.8071 10.763 25.0348 8.46143C25.2651 6.13303 24.6915 3.83117 22.863 1.9665ZM14.8777 2.95075C15.794 2.36947 16.9283 1.84793 18.0985 1.76226C19.225 1.6798 20.4391 1.9941 21.6135 3.19175C23.0173 4.6233 23.482 6.38152 23.2933 8.28913C23.1019 10.2236 22.2348 12.2958 20.9835 14.2226C19.7357 16.1438 18.1411 17.8654 16.5673 19.0982C14.9553 20.3608 13.5074 21 12.5415 21C11.5757 21 10.1278 20.3608 8.51581 19.0982C6.94192 17.8654 5.34739 16.1438 4.0996 14.2226C2.84821 12.2958 1.98113 10.2236 1.78975 8.28913C1.60102 6.38152 2.06578 4.6233 3.46955 3.19176C4.64395 1.99412 5.85806 1.67982 6.98451 1.76228C8.15474 1.84795 9.28897 2.36948 10.2053 2.95076C11.5947 3.83212 13.4883 3.83212 14.8777 2.95075Z" fill="#808080"/>
</svg>
