<svg width="28" height="26" viewBox="0 0 28 26" fill="none" xmlns="http://www.w3.org/2000/svg">
<path d="M23.8456 6.70393C25.4377 9.46144 26.2337 10.8402 26.3086 12.3479C26.3188 12.5544 26.3188 12.7613 26.3086 12.9678C26.2337 14.4755 25.4377 15.8543 23.8456 18.6118C22.2536 21.3693 21.4575 22.748 20.1892 23.5667C20.0155 23.6789 19.8364 23.7823 19.6524 23.8767C18.3093 24.5657 16.7172 24.5657 13.5331 24.5657C10.349 24.5657 8.75697 24.5657 7.4138 23.8767C7.22985 23.7823 7.0507 23.6789 6.877 23.5667C5.6087 22.748 4.81267 21.3693 3.22062 18.6118C1.62857 15.8543 0.832546 14.4755 0.757689 12.9678C0.747437 12.7613 0.747437 12.5544 0.757689 12.3479C0.832546 10.8402 1.62857 9.46144 3.22062 6.70393C4.81267 3.94641 5.6087 2.56766 6.877 1.74896C7.0507 1.63684 7.22986 1.5334 7.4138 1.43904C8.75697 0.75 10.349 0.75 13.5331 0.75C16.7172 0.75 18.3093 0.75 19.6524 1.43904C19.8364 1.5334 20.0155 1.63684 20.1892 1.74896C21.4575 2.56766 22.2536 3.94641 23.8456 6.70393Z" fill="#42C83C"/>
<path d="M11.0532 11.5377C11.307 10.9213 11.7965 10.4317 12.413 10.1779L15.7591 8.8001C16.7865 8.37704 17.8139 9.40447 17.3909 10.4319L16.0131 13.778C15.7592 14.3944 15.2697 14.884 14.6532 15.1378L11.3072 16.5156C10.2797 16.9387 9.25231 15.9112 9.67537 14.8838L11.0532 11.5377Z" fill="#42C83C"/>
<path d="M23.8456 6.70393C25.4377 9.46144 26.2337 10.8402 26.3086 12.3479C26.3188 12.5544 26.3188 12.7613 26.3086 12.9678C26.2337 14.4755 25.4377 15.8543 23.8456 18.6118C22.2536 21.3693 21.4575 22.748 20.1892 23.5667C20.0155 23.6789 19.8364 23.7823 19.6524 23.8767C18.3093 24.5657 16.7172 24.5657 13.5331 24.5657C10.349 24.5657 8.75697 24.5657 7.4138 23.8767C7.22985 23.7823 7.0507 23.6789 6.877 23.5667C5.6087 22.748 4.81267 21.3693 3.22062 18.6118C1.62857 15.8543 0.832546 14.4755 0.757689 12.9678C0.747437 12.7613 0.747437 12.5544 0.757689 12.3479C0.832546 10.8402 1.62857 9.46144 3.22062 6.70393C4.81267 3.94641 5.6087 2.56766 6.877 1.74896C7.0507 1.63684 7.22986 1.5334 7.4138 1.43904C8.75697 0.75 10.349 0.75 13.5331 0.75C16.7172 0.75 18.3093 0.75 19.6524 1.43904C19.8364 1.5334 20.0155 1.63684 20.1892 1.74896C21.4575 2.56766 22.2536 3.94641 23.8456 6.70393Z" stroke="transparant" stroke-width="1.5"/>
<path d="M11.0532 11.5377C11.307 10.9213 11.7965 10.4317 12.413 10.1779L15.7591 8.8001C16.7865 8.37704 17.8139 9.40447 17.3909 10.4319L16.0131 13.778C15.7592 14.3944 15.2697 14.884 14.6532 15.1378L11.3072 16.5156C10.2797 16.9387 9.25231 15.9112 9.67537 14.8838L11.0532 11.5377Z" stroke="white" stroke-width="1.5"/>
</svg>
